<svg width="36" height="10" viewBox="0 0 36 10" fill="none" xmlns="http://www.w3.org/2000/svg">
    <path d="M0.84 9V0.36H2.304L6.312 6.45V0.36H7.776V9H6.312L2.304 2.91V9H0.84ZM12.3993 9.18C11.7433 9.18 11.1673 9.038 10.6713 8.754C10.1753 8.47 9.78728 8.076 9.50728 7.572C9.23128 7.068 9.09328 6.488 9.09328 5.832C9.09328 5.124 9.22928 4.51 9.50128 3.99C9.77328 3.466 10.1513 3.06 10.6353 2.772C11.1193 2.484 11.6793 2.34 12.3153 2.34C12.9873 2.34 13.5573 2.498 14.0253 2.814C14.4973 3.126 14.8473 3.568 15.0753 4.14C15.3033 4.712 15.3893 5.386 15.3333 6.162H13.8993V5.634C13.8953 4.93 13.7713 4.416 13.5273 4.092C13.2833 3.768 12.8993 3.606 12.3753 3.606C11.7833 3.606 11.3433 3.79 11.0553 4.158C10.7673 4.522 10.6233 5.056 10.6233 5.76C10.6233 6.416 10.7673 6.924 11.0553 7.284C11.3433 7.644 11.7633 7.824 12.3153 7.824C12.6713 7.824 12.9773 7.746 13.2333 7.59C13.4933 7.43 13.6933 7.2 13.8333 6.9L15.2613 7.332C15.0133 7.916 14.6293 8.37 14.1093 8.694C13.5933 9.018 13.0233 9.18 12.3993 9.18ZM10.1673 6.162V5.07H14.6253V6.162H10.1673ZM15.7177 9L18.0877 5.724L15.7657 2.52H17.4697L18.9277 4.59L20.3617 2.52H22.0657L19.7437 5.724L22.1257 9H20.4217L18.9277 6.858L17.4217 9H15.7177ZM25.5122 9.186C25.0322 9.186 24.6362 9.106 24.3242 8.946C24.0122 8.786 23.7642 8.582 23.5802 8.334C23.3962 8.086 23.2602 7.822 23.1722 7.542C23.0842 7.262 23.0262 6.998 22.9982 6.75C22.9742 6.498 22.9622 6.294 22.9622 6.138V2.52H24.4262V5.64C24.4262 5.84 24.4402 6.066 24.4682 6.318C24.4962 6.566 24.5602 6.806 24.6602 7.038C24.7642 7.266 24.9162 7.454 25.1162 7.602C25.3202 7.75 25.5942 7.824 25.9382 7.824C26.1222 7.824 26.3042 7.794 26.4842 7.734C26.6642 7.674 26.8262 7.572 26.9702 7.428C27.1182 7.28 27.2362 7.078 27.3242 6.822C27.4122 6.566 27.4562 6.242 27.4562 5.85L28.3142 6.216C28.3142 6.768 28.2062 7.268 27.9902 7.716C27.7782 8.164 27.4642 8.522 27.0482 8.79C26.6322 9.054 26.1202 9.186 25.5122 9.186ZM27.6302 9V6.99H27.4562V2.52H28.9082V9H27.6302ZM33.0959 9.18C32.2959 9.18 31.6459 9 31.1459 8.64C30.6459 8.28 30.3419 7.774 30.2339 7.122L31.7099 6.894C31.7859 7.214 31.9539 7.466 32.2139 7.65C32.4739 7.834 32.8019 7.926 33.1979 7.926C33.5459 7.926 33.8139 7.858 34.0019 7.722C34.1939 7.582 34.2899 7.392 34.2899 7.152C34.2899 7.004 34.2539 6.886 34.1819 6.798C34.1139 6.706 33.9619 6.618 33.7259 6.534C33.4899 6.45 33.1279 6.344 32.6399 6.216C32.0959 6.072 31.6639 5.918 31.3439 5.754C31.0239 5.586 30.7939 5.388 30.6539 5.16C30.5139 4.932 30.4439 4.656 30.4439 4.332C30.4439 3.928 30.5499 3.576 30.7619 3.276C30.9739 2.976 31.2699 2.746 31.6499 2.586C32.0299 2.422 32.4779 2.34 32.9939 2.34C33.4979 2.34 33.9439 2.418 34.3319 2.574C34.7239 2.73 35.0399 2.952 35.2799 3.24C35.5199 3.528 35.6679 3.866 35.7239 4.254L34.2479 4.518C34.2119 4.242 34.0859 4.024 33.8699 3.864C33.6579 3.704 33.3739 3.614 33.0179 3.594C32.6779 3.574 32.4039 3.626 32.1959 3.75C31.9879 3.87 31.8839 4.04 31.8839 4.26C31.8839 4.384 31.9259 4.49 32.0099 4.578C32.0939 4.666 32.2619 4.754 32.5139 4.842C32.7699 4.93 33.1499 5.038 33.6539 5.166C34.1699 5.298 34.5819 5.45 34.8899 5.622C35.2019 5.79 35.4259 5.992 35.5619 6.228C35.7019 6.464 35.7719 6.75 35.7719 7.086C35.7719 7.738 35.5339 8.25 35.0579 8.622C34.5859 8.994 33.9319 9.18 33.0959 9.18Z"
          fill="url(#paint0_linear_577_57)"/>
    <defs>
        <linearGradient id="paint0_linear_577_57" x1="5.74598e-07" y1="-0.562823" x2="37" y2="8.56283"
                        gradientUnits="userSpaceOnUse">
            <stop stop-color="#69ffbe"/>
            <stop offset="1" stop-color="#69fffa"/>
        </linearGradient>
    </defs>
</svg>
