<svg width="8" height="14" viewBox="0 0 8 14" fill="none" xmlns="http://www.w3.org/2000/svg">
<path fill-rule="evenodd" clip-rule="evenodd" d="M3.21875 1.5875C3.21875 0.78125 2.51875 0.125 1.65625 0.125C0.79375 0.125 0.09375 0.78125 0.09375 1.5875C0.09375 2.395 0.79375 3.05 1.65625 3.05C2.51875 3.05 3.21875 2.395 3.21875 1.5875ZM3.21875 12.4125C3.21875 11.605 2.51875 10.95 1.65625 10.95C0.79375 10.95 0.09375 11.605 0.09375 12.4125C0.09375 13.2188 0.79375 13.875 1.65625 13.875C2.51875 13.875 3.21875 13.2188 3.21875 12.4125ZM1.65625 5.5375C2.51875 5.5375 3.21875 6.19375 3.21875 7C3.21875 7.80625 2.51875 8.4625 1.65625 8.4625C0.79375 8.4625 0.09375 7.80625 0.09375 7C0.09375 6.19375 0.79375 5.5375 1.65625 5.5375ZM7.90625 1.5875C7.90625 0.78125 7.20625 0.125 6.34375 0.125C5.48125 0.125 4.78125 0.78125 4.78125 1.5875C4.78125 2.395 5.48125 3.05 6.34375 3.05C7.20625 3.05 7.90625 2.395 7.90625 1.5875ZM6.34375 10.95C7.20625 10.95 7.90625 11.605 7.90625 12.4125C7.90625 13.2188 7.20625 13.875 6.34375 13.875C5.48125 13.875 4.78125 13.2188 4.78125 12.4125C4.78125 11.605 5.48125 10.95 6.34375 10.95ZM7.90625 7C7.90625 6.19375 7.20625 5.5375 6.34375 5.5375C5.48125 5.5375 4.78125 6.19375 4.78125 7C4.78125 7.80625 5.48125 8.4625 6.34375 8.4625C7.20625 8.4625 7.90625 7.80625 7.90625 7Z" fill="#A9B0BA"/>
</svg>
