<svg xmlns="http://www.w3.org/2000/svg" width="16" height="16" viewBox="0 0 16 16" fill="none">
  <g clip-path="url(#clip0_202_91845)">
    <path
      d="M14.5455 0H1.45455C0.650909 0 0 0.650909 0 1.45455V14.5455C0 15.3491 0.650909 16 1.45455 16H14.5455C15.3491 16 16 15.3491 16 14.5455V1.45455C16 0.650909 15.3491 0 14.5455 0ZM5.05746 13.0909H2.912V6.18764H5.05746V13.0909ZM3.96291 5.20073C3.27127 5.20073 2.712 4.64 2.712 3.94982C2.712 3.25964 3.272 2.69964 3.96291 2.69964C4.65236 2.69964 5.21309 3.26036 5.21309 3.94982C5.21309 4.64 4.65236 5.20073 3.96291 5.20073ZM13.0938 13.0909H10.9498V9.73382C10.9498 8.93309 10.9353 7.90327 9.83491 7.90327C8.71855 7.90327 8.54691 8.77527 8.54691 9.67564V13.0909H6.40291V6.18764H8.46109V7.13091H8.49018C8.77673 6.58836 9.47636 6.016 10.52 6.016C12.6924 6.016 13.0938 7.44582 13.0938 9.30473V13.0909V13.0909Z"
      fill="#4b5563"></path>
  </g>
</svg>
