<svg xmlns="http://www.w3.org/2000/svg" width="11" height="12" viewBox="0 0 11 12" fill="none">
  <path d="M5.95027 1.87589H5.23432C5.17068 1.87589 5.13886 1.90771 5.13886 1.97135V5.71815H1.58325C1.51961 5.71815 1.48779 5.74997 1.48779 5.81361V6.52956C1.48779 6.5932 1.51961 6.62502 1.58325 6.62502H5.13886V10.3718C5.13886 10.4355 5.17068 10.4673 5.23432 10.4673H5.95027C6.01391 10.4673 6.04573 10.4355 6.04573 10.3718V6.62502H9.6019C9.66554 6.62502 9.69736 6.5932 9.69736 6.52956V5.81361C9.69736 5.74997 9.66554 5.71815 9.6019 5.71815H6.04573V1.97135C6.04573 1.90771 6.01391 1.87589 5.95027 1.87589Z" fill="#1890FF"/>
</svg>
