<svg xmlns="http://www.w3.org/2000/svg" width="14" height="14" viewBox="0 0 14 14" fill="none">
  <g clip-path="url(#clip0_74_16716)">
    <path
      d="M7 0.875C3.61758 0.875 0.875 3.61758 0.875 7C0.875 10.3824 3.61758 13.125 7 13.125C10.3824 13.125 13.125 10.3824 13.125 7C13.125 3.61758 10.3824 0.875 7 0.875ZM7 12.0859C4.1918 12.0859 1.91406 9.8082 1.91406 7C1.91406 4.1918 4.1918 1.91406 7 1.91406C9.8082 1.91406 12.0859 4.1918 12.0859 7C12.0859 9.8082 9.8082 12.0859 7 12.0859Z"
      fill="#1D1D1B" />
    <path
      d="M8.52557 4.32946C8.11541 3.96989 7.57401 3.77301 6.99979 3.77301C6.42557 3.77301 5.88416 3.97125 5.47401 4.32946C5.04744 4.7027 4.81229 5.20446 4.81229 5.74176V5.84567C4.81229 5.90582 4.86151 5.95504 4.92166 5.95504H5.57791C5.63807 5.95504 5.68729 5.90582 5.68729 5.84567V5.74176C5.68729 5.13883 6.27654 4.64801 6.99979 4.64801C7.72303 4.64801 8.31229 5.13883 8.31229 5.74176C8.31229 6.16696 8.01151 6.5566 7.5453 6.73571C7.25545 6.84645 7.00936 7.04059 6.83299 7.29489C6.65389 7.55465 6.56092 7.86637 6.56092 8.18219V8.47614C6.56092 8.53629 6.61014 8.58551 6.67029 8.58551H7.32655C7.3867 8.58551 7.43592 8.53629 7.43592 8.47614V8.16578C7.43663 8.03306 7.47731 7.90363 7.55267 7.79437C7.62803 7.68511 7.73456 7.6011 7.85838 7.55328C8.66502 7.24293 9.18592 6.53199 9.18592 5.74176C9.18729 5.20446 8.95213 4.7027 8.52557 4.32946ZM6.45291 10.0074C6.45291 10.1524 6.51053 10.2915 6.61309 10.3941C6.71565 10.4966 6.85475 10.5543 6.99979 10.5543C7.14483 10.5543 7.28393 10.4966 7.38649 10.3941C7.48904 10.2915 7.54666 10.1524 7.54666 10.0074C7.54666 9.86235 7.48904 9.72325 7.38649 9.62069C7.28393 9.51813 7.14483 9.46051 6.99979 9.46051C6.85475 9.46051 6.71565 9.51813 6.61309 9.62069C6.51053 9.72325 6.45291 9.86235 6.45291 10.0074Z"
      fill="#1D1D1B" />
  </g>
  <defs>
    <clipPath id="clip0_74_16716">
      <rect width="14" height="14" fill="white" />
    </clipPath>
  </defs>
</svg>
