<svg width="55" height="55" viewBox="0 0 55 55" fill="none" xmlns="http://www.w3.org/2000/svg">
<path d="M3.66895 12.3506V41.068H50.9682V12.3506H3.66895ZM10.426 15.7291H44.2112C44.2112 17.5957 45.7231 19.1076 47.5897 19.1076V34.311C45.7231 34.311 44.2112 35.8229 44.2112 37.6895H10.426C10.426 35.8229 8.9141 34.311 7.04747 34.311V19.1076C8.9141 19.1076 10.426 17.5957 10.426 15.7291ZM27.3186 19.1076C23.5836 19.1076 20.5616 22.5132 20.5616 26.7093C20.5616 30.9054 23.5836 34.311 27.3186 34.311C31.0535 34.311 34.0756 30.9054 34.0756 26.7093C34.0756 22.5132 31.0535 19.1076 27.3186 19.1076ZM27.3186 22.4861C29.1802 22.4861 30.6971 24.3798 30.6971 26.7093C30.6971 29.0388 29.1802 30.9325 27.3186 30.9325C25.457 30.9325 23.9401 29.0388 23.9401 26.7093C23.9401 24.3798 25.457 22.4861 27.3186 22.4861ZM14.6491 24.1754C13.2504 24.1754 12.1152 25.3106 12.1152 26.7093C12.1152 28.108 13.2504 29.2432 14.6491 29.2432C16.0478 29.2432 17.183 28.108 17.183 26.7093C17.183 25.3106 16.0478 24.1754 14.6491 24.1754ZM39.988 24.1754C38.5893 24.1754 37.4542 25.3106 37.4542 26.7093C37.4542 28.108 38.5893 29.2432 39.988 29.2432C41.3868 29.2432 42.5219 28.108 42.5219 26.7093C42.5219 25.3106 41.3868 24.1754 39.988 24.1754Z" fill="black"/>
</svg>
