<svg width="57" height="57" viewBox="0 0 57 57" fill="none" xmlns="http://www.w3.org/2000/svg">
<path d="M36.9128 7.42676C33.7952 7.42676 30.9698 8.01087 28.7624 9.11117C26.555 10.2115 24.7415 12.0046 24.7415 14.3818V21.3368C24.7415 21.5609 24.8162 21.7782 24.8502 21.9888C23.2337 21.5677 21.4406 21.3368 19.5253 21.3368C16.4077 21.3368 13.5823 21.9209 11.3749 23.0212C9.16747 24.1215 7.354 25.9146 7.354 28.2918V42.2018C7.354 44.579 9.16747 46.372 11.3749 47.4723C13.5823 48.5726 16.4077 49.1568 19.5253 49.1568C22.6428 49.1568 25.4682 48.5726 27.6756 47.4723C29.883 46.372 31.6965 44.579 31.6965 42.2018V41.4954C33.2926 41.9165 35.0382 42.2018 36.9128 42.2018C40.0303 42.2018 42.8557 41.6176 45.0631 40.5173C47.2705 39.417 49.084 37.624 49.084 35.2468V14.3818C49.084 12.0046 47.2705 10.2115 45.0631 9.11117C42.8557 8.01087 40.0303 7.42676 36.9128 7.42676ZM36.9128 10.9043C39.5616 10.9043 41.9185 11.4748 43.4874 12.2627C45.0564 13.0505 45.6065 13.8792 45.6065 14.3818C45.6065 14.8844 45.0564 15.713 43.4874 16.5009C41.9185 17.2887 39.5616 17.8593 36.9128 17.8593C34.2639 17.8593 31.9071 17.2887 30.3381 16.5009C28.7692 15.713 28.219 14.8844 28.219 14.3818C28.219 13.8792 28.7692 13.0505 30.3381 12.2627C31.9071 11.4748 34.2639 10.9043 36.9128 10.9043ZM28.219 19.3263C28.4024 19.4282 28.5722 19.5573 28.7624 19.6523C30.9698 20.7526 33.7952 21.3368 36.9128 21.3368C40.0303 21.3368 42.8557 20.7526 45.0631 19.6523C45.2533 19.5573 45.4231 19.4282 45.6065 19.3263V21.3368C45.6065 21.8394 45.0564 22.668 43.4874 23.4559C41.9185 24.2437 39.5616 24.8143 36.9128 24.8143C34.2639 24.8143 31.9071 24.2437 30.3381 23.4559C28.7692 22.668 28.219 21.8394 28.219 21.3368V19.3263ZM19.5253 24.8143C22.1741 24.8143 24.531 25.3848 26.0999 26.1727C27.6689 26.9605 28.219 27.7892 28.219 28.2918C28.219 28.7944 27.6689 29.623 26.0999 30.4109C24.531 31.1987 22.1741 31.7693 19.5253 31.7693C16.8764 31.7693 14.5196 31.1987 12.9506 30.4109C11.3817 29.623 10.8315 28.7944 10.8315 28.2918C10.8315 27.7892 11.3817 26.9605 12.9506 26.1727C14.5196 25.3848 16.8764 24.8143 19.5253 24.8143ZM45.6065 26.2813V28.2918C45.6065 28.7944 45.0564 29.623 43.4874 30.4109C41.9185 31.1987 39.5616 31.7693 36.9128 31.7693C34.9363 31.7693 33.15 31.4432 31.6965 30.9542V28.2918C31.6965 28.0676 31.6218 27.8503 31.5878 27.6397C33.2043 28.0608 34.9974 28.2918 36.9128 28.2918C40.0303 28.2918 42.8557 27.7076 45.0631 26.6073C45.2533 26.5123 45.4231 26.3832 45.6065 26.2813ZM10.8315 33.2363C11.0149 33.3382 11.1847 33.4673 11.3749 33.5623C13.5823 34.6626 16.4077 35.2468 19.5253 35.2468C22.6428 35.2468 25.4682 34.6626 27.6756 33.5623C27.8658 33.4673 28.0356 33.3382 28.219 33.2363V35.2468C28.219 35.7494 27.6689 36.578 26.0999 37.3659C24.531 38.1537 22.1741 38.7243 19.5253 38.7243C16.8764 38.7243 14.5196 38.1537 12.9506 37.3659C11.3817 36.578 10.8315 35.7494 10.8315 35.2468V33.2363ZM45.6065 33.2363V35.2468C45.6065 35.7494 45.0564 36.578 43.4874 37.3659C41.9185 38.1537 39.5616 38.7243 36.9128 38.7243C34.9363 38.7243 33.15 38.4458 31.6965 37.9636V34.5947C33.2926 35.0158 35.0314 35.2468 36.9128 35.2468C40.0303 35.2468 42.8557 34.6626 45.0631 33.5623C45.2533 33.4673 45.4231 33.3382 45.6065 33.2363ZM10.8315 40.1913C11.0149 40.2932 11.1847 40.4223 11.3749 40.5173C13.5823 41.6176 16.4077 42.2018 19.5253 42.2018C22.6428 42.2018 25.4682 41.6176 27.6756 40.5173C27.8658 40.4223 28.0356 40.2932 28.219 40.1913V42.2018C28.219 42.7044 27.6689 43.533 26.0999 44.3209C24.531 45.1087 22.1741 45.6793 19.5253 45.6793C16.8764 45.6793 14.5196 45.1087 12.9506 44.3209C11.3817 43.533 10.8315 42.7044 10.8315 42.2018V40.1913Z" fill="black"/>
</svg>
