<?xml version="1.0" standalone="no"?>
<!DOCTYPE svg PUBLIC "-//W3C//DTD SVG 20010904//EN"
 "http://www.w3.org/TR/2001/REC-SVG-20010904/DTD/svg10.dtd">
<svg version="1.0" xmlns="http://www.w3.org/2000/svg"
 width="55.000000pt" height="55.000000pt" viewBox="0 0 55.000000 55.000000"
 preserveAspectRatio="xMidYMid meet">

<g transform="translate(0.000000,55.000000) scale(0.100000,-0.100000)"
fill="#000000" stroke="none">
<path d="M234 499 c-87 -46 -150 -83 -166 -97 -15 -13 -18 -33 -18 -133 l0
-117 106 -61 c58 -34 111 -61 117 -60 7 0 57 26 112 57 l100 58 3 126 3 126
-68 37 c-37 21 -86 48 -109 61 l-40 24 -40 -21z m117 -61 c44 -24 78 -47 76
-51 -1 -5 -37 -28 -79 -52 l-76 -43 -81 46 c-53 30 -78 49 -71 56 9 9 141 85
149 86 2 0 39 -19 82 -42z m109 -177 l0 -89 -80 -46 c-43 -25 -82 -46 -85 -46
-3 0 -5 42 -5 93 l0 92 73 42 c39 22 78 41 85 42 9 1 12 -23 12 -88z"/>
</g>
</svg>
