<svg width="362" height="362" viewBox="0 0 362 362" fill="none" xmlns="http://www.w3.org/2000/svg">
    <g clip-path="url(#clip0_437_2)">
        <path d="M180.7 0C80.9 0 0 80.9 0 180.7C0 280.5 80.9 361.4 180.7 361.4C280.5 361.4 361.4 280.5 361.4 180.7C361.4 80.9 280.5 0 180.7 0ZM274.5 244.6C274.5 247.7 272 250.2 268.9 250.2H245.3C242.2 250.2 239.7 247.7 239.7 244.6V171.9C239.7 171.3 239 171 238.5 171.4L188.5 221.4C184.2 225.7 177.1 225.7 172.8 221.4L122.8 171.4C122.4 171 121.6 171.3 121.6 171.9V244.6C121.6 247.7 119.1 250.2 116 250.2H92.4C89.3 250.2 86.8 247.7 86.8 244.6V116.8C86.8 113.7 89.3 111.2 92.4 111.2H108.6C111.5 111.2 114.4 112.4 116.5 114.5L178.7 176.7C179.8 177.8 181.5 177.8 182.6 176.7L244.8 114.5C246.9 112.4 249.7 111.2 252.7 111.2H268.9C272 111.2 274.5 113.7 274.5 116.8V244.6Z"
              fill="#D9272E"/>
    </g>
    <defs>
        <clipPath id="clip0_437_2">
            <rect width="362" height="362" fill="white"/>
        </clipPath>
    </defs>
</svg>
