<svg width="32" height="21" viewBox="0 0 32 21" fill="none" xmlns="http://www.w3.org/2000/svg">
    <g clip-path="url(#clip0_437_5)">
        <path d="M12.2025 5.69292L12.2028 5.69182L18.9205 9.71561L22.9234 8.0311C23.7368 7.67945 24.6139 7.49913 25.5 7.5C25.6477 7.5 25.7936 7.5067 25.9388 7.51639C25.4576 5.6398 24.4416 3.9434 23.0144 2.63333C21.5872 1.32325 19.8102 0.455907 17.8994 0.136696C15.9886 -0.182515 14.0261 0.0601484 12.2506 0.835199C10.4751 1.61025 8.96292 2.88432 7.89783 4.50258C7.93205 4.50215 7.96575 4.5 8.00005 4.5C9.4847 4.49799 10.9403 4.91119 12.2025 5.69292Z"
              fill="#0364B8"/>
        <path d="M12.2028 5.69183L12.2024 5.69293C10.9403 4.9112 9.48465 4.498 8 4.50001C7.9657 4.50001 7.93195 4.50216 7.89777 4.50259C6.44467 4.52058 5.02394 4.93419 3.78826 5.69898C2.55257 6.46377 1.54865 7.55082 0.884371 8.84332C0.220091 10.1358 -0.0794303 11.5849 0.0179931 13.0348C0.115416 14.4848 0.606102 15.8808 1.43732 17.0728L7.36132 14.5799L9.99474 13.4717L15.8583 11.0042L18.9204 9.71562L12.2028 5.69183Z"
              fill="#0078D4"/>
        <path d="M25.9388 7.51639C25.7936 7.5067 25.6476 7.5 25.5 7.5C24.6138 7.49914 23.7369 7.68013 22.9235 8.03178L18.9204 9.71561L20.0812 10.4109L23.8861 12.69L25.5462 13.6844L31.2225 17.0845C31.7383 16.127 32.0056 15.0554 31.9999 13.9678C31.9942 12.8803 31.7158 11.8115 31.19 10.8595C30.6643 9.90742 29.908 9.1025 28.9906 8.51844C28.0732 7.93438 27.0239 7.58984 25.9388 7.51639Z"
              fill="#1490DF"/>
        <path d="M25.5462 13.6846L23.8862 12.6902L20.0812 10.4111L18.9205 9.71582L15.8583 11.0044L9.9948 13.4719L7.36138 14.58L1.43738 17.073C2.17354 18.1314 3.15493 18.9959 4.29773 19.5927C5.44053 20.1895 6.71079 20.5009 8.00005 20.5002H25.5C26.6734 20.5006 27.825 20.1832 28.8325 19.5818C29.84 18.9805 30.6659 18.1176 31.2226 17.0846L25.5462 13.6846Z"
              fill="#28A8EA"/>
    </g>
    <defs>
        <clipPath id="clip0_437_5">
            <rect width="32" height="20.5" fill="white"/>
        </clipPath>
    </defs>
</svg>
