<svg xmlns="http://www.w3.org/2000/svg" width="24" height="23" viewBox="0 0 24 23" fill="none">
    <path d="M24 11.6753C24 10.0854 22.009 8.57866 18.9564 7.6443C19.6608 4.53301 19.3477 2.05767 17.9682 1.26517C17.6502 1.07928 17.2784 0.99122 16.8724 0.99122V2.08213C17.0974 2.08213 17.2784 2.12616 17.4301 2.20932C18.0954 2.59089 18.384 4.04381 18.159 5.91254C18.1052 6.37239 18.0171 6.85669 17.9095 7.35078C16.9507 7.11597 15.9038 6.93496 14.8031 6.81755C14.1427 5.91254 13.4578 5.09069 12.768 4.37157C14.3628 2.8893 15.8598 2.07724 16.8773 2.07724V0.986328C15.532 0.986328 13.7709 1.94515 11.9902 3.60842C10.2095 1.95494 8.44843 1.0059 7.10314 1.0059V2.0968C8.11578 2.0968 9.61761 2.90398 11.2124 4.37646C10.5275 5.09558 9.84264 5.91254 9.19201 6.81755C8.08643 6.93496 7.03954 7.11596 6.08072 7.35567C5.9682 6.86647 5.88504 6.39195 5.82633 5.937C5.59641 4.06827 5.88015 2.61535 6.54056 2.22889C6.68732 2.14083 6.87811 2.1017 7.10314 2.1017V1.01079C6.69221 1.01079 6.32042 1.09884 5.99755 1.28474C4.62291 2.07724 4.31472 4.54768 5.02405 7.64919C1.98125 8.58845 0 10.0903 0 11.6753C0 13.2652 1.99103 14.7719 5.04362 15.7063C4.33918 18.8176 4.65226 21.2929 6.0318 22.0854C6.34978 22.2713 6.72157 22.3593 7.13249 22.3593C8.47778 22.3593 10.2389 21.4005 12.0196 19.7372C13.8002 21.3907 15.5614 22.3398 16.9066 22.3398C17.3176 22.3398 17.6894 22.2517 18.0122 22.0658C19.3869 21.2733 19.6951 18.8029 18.9857 15.7014C22.0188 14.767 24 13.2603 24 11.6753ZM17.6307 8.41234C17.4497 9.0434 17.2246 9.69403 16.9702 10.3447C16.7697 9.95331 16.5593 9.56195 16.3294 9.17059C16.1044 8.77923 15.8647 8.39766 15.625 8.02587C16.3196 8.1286 16.9898 8.25579 17.6307 8.41234ZM15.3901 13.6223C15.0086 14.2827 14.6172 14.9089 14.2112 15.491C13.4823 15.5546 12.7436 15.5889 12 15.5889C11.2613 15.5889 10.5226 15.5546 9.79861 15.4959C9.39258 14.9138 8.99633 14.2925 8.61476 13.637C8.24297 12.9961 7.90542 12.3455 7.59723 11.69C7.90053 11.0344 8.24297 10.3789 8.60987 9.73806C8.99144 9.07764 9.3828 8.45147 9.78883 7.86933C10.5177 7.80573 11.2564 7.77149 12 7.77149C12.7387 7.77149 13.4774 7.80573 14.2014 7.86444C14.6074 8.44658 15.0037 9.06786 15.3852 9.72338C15.757 10.3642 16.0946 11.0149 16.4028 11.6704C16.0946 12.3259 15.757 12.9814 15.3901 13.6223ZM16.9702 12.9863C17.2344 13.6419 17.4594 14.2974 17.6453 14.9333C17.0045 15.0899 16.3294 15.222 15.6298 15.3247C15.8695 14.948 16.1093 14.5615 16.3343 14.1653C16.5593 13.7739 16.7697 13.3777 16.9702 12.9863ZM12.0098 18.2061C11.5548 17.7364 11.0999 17.213 10.6498 16.6406C11.0901 16.6602 11.5402 16.6749 11.9951 16.6749C12.455 16.6749 12.9099 16.6651 13.3551 16.6406C12.9148 17.213 12.4598 17.7364 12.0098 18.2061ZM8.37016 15.3247C7.6755 15.222 7.0053 15.0948 6.36445 14.9382C6.54545 14.3072 6.77049 13.6565 7.02487 13.0059C7.22544 13.3973 7.43579 13.7886 7.66572 14.18C7.89564 14.5713 8.13045 14.9529 8.37016 15.3247ZM11.9853 5.1445C12.4403 5.61413 12.8952 6.13757 13.3453 6.70993C12.905 6.69036 12.455 6.67569 12 6.67569C11.5402 6.67569 11.0852 6.68547 10.64 6.70993C11.0803 6.13757 11.5353 5.61413 11.9853 5.1445ZM8.36527 8.02587C8.12556 8.40255 7.88585 8.78902 7.66082 9.18527C7.43579 9.57663 7.22544 9.96798 7.02487 10.3593C6.7607 9.70382 6.53567 9.04829 6.34978 8.41234C6.99062 8.26069 7.66572 8.1286 8.36527 8.02587ZM3.93804 14.1506C2.20628 13.4119 1.08602 12.4433 1.08602 11.6753C1.08602 10.9072 2.20628 9.93374 3.93804 9.19994C4.35875 9.01894 4.81859 8.85751 5.29311 8.70586C5.57195 9.66468 5.93885 10.6626 6.3938 11.6851C5.94374 12.7026 5.58174 13.6957 5.30779 14.6496C4.82348 14.4979 4.36364 14.3316 3.93804 14.1506ZM6.56991 21.1412C5.90461 20.7597 5.61598 19.3068 5.84101 17.438C5.89482 16.9782 5.98288 16.4939 6.0905 15.9998C7.04933 16.2346 8.09621 16.4156 9.1969 16.533C9.85732 17.438 10.5422 18.2599 11.232 18.979C9.63718 20.4613 8.14024 21.2733 7.12271 21.2733C6.90257 21.2684 6.71667 21.2244 6.56991 21.1412ZM18.1737 17.4136C18.4036 19.2823 18.1199 20.7352 17.4594 21.1217C17.3127 21.2097 17.1219 21.2489 16.8969 21.2489C15.8842 21.2489 14.3824 20.4417 12.7876 18.9692C13.4725 18.2501 14.1574 17.4331 14.808 16.5281C15.9136 16.4107 16.9605 16.2297 17.9193 15.99C18.0318 16.4841 18.1199 16.9586 18.1737 17.4136ZM20.0571 14.1506C19.6364 14.3316 19.1765 14.4931 18.702 14.6447C18.4232 13.6859 18.0563 12.6879 17.6013 11.6655C18.0514 10.648 18.4134 9.6549 18.6873 8.70096C19.1716 8.85261 19.6315 9.01894 20.062 9.19994C21.7937 9.93863 22.914 10.9072 22.914 11.6753C22.9091 12.4433 21.7888 13.4168 20.0571 14.1506Z"
          fill="#61DAFB"/>
    <path d="M11.9949 13.9107C13.2296 13.9107 14.2305 12.9098 14.2305 11.6751C14.2305 10.4404 13.2296 9.43945 11.9949 9.43945C10.7602 9.43945 9.75928 10.4404 9.75928 11.6751C9.75928 12.9098 10.7602 13.9107 11.9949 13.9107Z"
          fill="#61DAFB"/>
</svg>
