<svg width="28" height="28" viewBox="0 0 28 28" fill="none" xmlns="http://www.w3.org/2000/svg">
<circle cx="14" cy="14" r="13.5" fill="white" stroke="#60A7F7"/>
<path d="M19.25 14.8733H14.875V19.2483C14.875 19.4803 14.7828 19.7029 14.6187 19.867C14.4546 20.0311 14.2321 20.1233 14 20.1233C13.7679 20.1233 13.5454 20.0311 13.3813 19.867C13.2172 19.7029 13.125 19.4803 13.125 19.2483V14.8733H8.75C8.51794 14.8733 8.29538 14.7811 8.13128 14.617C7.96719 14.4529 7.875 14.2303 7.875 13.9983C7.875 13.7662 7.96719 13.5436 8.13128 13.3795C8.29538 13.2154 8.51794 13.1233 8.75 13.1233H13.125V8.74826C13.125 8.5162 13.2172 8.29364 13.3813 8.12954C13.5454 7.96545 13.7679 7.87326 14 7.87326C14.2321 7.87326 14.4546 7.96545 14.6187 8.12954C14.7828 8.29364 14.875 8.5162 14.875 8.74826V13.1233H19.25C19.4821 13.1233 19.7046 13.2154 19.8687 13.3795C20.0328 13.5436 20.125 13.7662 20.125 13.9983C20.125 14.2303 20.0328 14.4529 19.8687 14.617C19.7046 14.7811 19.4821 14.8733 19.25 14.8733Z" fill="#60A7F7"/>
</svg>
