<svg width="365" height="325" viewBox="0 0 365 325" fill="none" xmlns="http://www.w3.org/2000/svg">
<g clip-path="url(#clip0_4_2)">
<path d="M430 293.043H-54V293.281H430V293.043Z" fill="#EBEBEB"/>
<path d="M381.504 308.366H349.442V308.604H381.504V308.366Z" fill="#EBEBEB"/>
<path d="M266.621 310.95H258.206V311.188H266.621V310.95Z" fill="#EBEBEB"/>
<path d="M348.473 299.526H329.895V299.764H348.473V299.526Z" fill="#EBEBEB"/>
<path d="M38.5912 301.125H-3.21967V301.363H38.5912V301.125Z" fill="#EBEBEB"/>
<path d="M53.3405 301.125H47.2102V301.363H53.3405V301.125Z" fill="#EBEBEB"/>
<path d="M163.942 305.146H73.2639V305.384H163.942V305.146Z" fill="#EBEBEB"/>
<path d="M175.43 250.586H-11.4903C-14.5366 250.586 -17.0156 248.148 -17.0156 245.152V-13.2517C-17.0156 -16.2476 -14.5366 -18.6857 -11.4903 -18.6857H175.43C178.475 -18.6857 180.954 -16.2476 180.954 -13.2517V245.152C180.954 248.148 178.475 250.586 175.43 250.586ZM-11.4903 -18.4467C-14.404 -18.4467 -16.7736 -16.1162 -16.7736 -13.2507V245.153C-16.7736 248.018 -14.404 250.349 -11.4903 250.349H175.43C178.342 250.349 180.712 248.018 180.712 245.153V-13.2517C180.712 -16.1162 178.342 -18.4477 175.43 -18.4477L-11.4903 -18.4467Z" fill="#EBEBEB"/>
<path d="M384.804 250.586H197.885C194.839 250.586 192.361 248.148 192.361 245.152V-13.2517C192.361 -16.2476 194.84 -18.6857 197.885 -18.6857H384.804C387.851 -18.6857 390.329 -16.2476 390.329 -13.2517V245.152C390.33 248.148 387.851 250.586 384.804 250.586ZM197.885 -18.4467C194.973 -18.4467 192.603 -16.1162 192.603 -13.2507V245.153C192.603 248.018 194.973 250.349 197.885 250.349H384.804C387.718 250.349 390.087 248.018 390.087 245.153V-13.2517C390.087 -16.1162 387.718 -18.4477 384.804 -18.4477L197.885 -18.4467Z" fill="#EBEBEB"/>
<path d="M226.42 94.7034L359.792 94.7034V8.80732L226.42 8.80732V94.7034Z" fill="#E6E6E6"/>
<path d="M222.351 94.7034L357.891 94.7034V8.80732L222.351 8.80732V94.7034Z" fill="#F0F0F0"/>
<path d="M226.42 111.561L359.792 111.561V94.7028L226.42 94.7028V111.561Z" fill="#E6E6E6"/>
<path d="M215.572 111.561L351.112 111.561V94.7028L215.572 94.7028V111.561Z" fill="#F0F0F0"/>
<path d="M352.194 89.1008V14.4107L228.049 14.4107V89.1008L352.194 89.1008Z" fill="#FAFAFA"/>
<path d="M324.2 89.1017L308.344 14.4116H283.601L299.456 89.1017H324.2Z" fill="white"/>
<path d="M349.556 83.5239C349.781 83.5239 349.964 83.3449 349.964 83.1241V18.0568C349.964 17.8359 349.782 17.6569 349.556 17.6569C349.332 17.6569 349.149 17.8359 349.149 18.0568V83.1241C349.149 83.3449 349.332 83.5239 349.556 83.5239Z" fill="#F0F0F0"/>
<path d="M294.141 89.1017L278.285 14.4116H268.638L284.495 89.1017H294.141Z" fill="white"/>
<path d="M228.772 89.1008V14.4107H228.049V89.1008H228.772Z" fill="#E6E6E6"/>
<path opacity="0.6" d="M221.004 22.8586H354.376L354.9 16.5887H221.528L221.004 22.8586Z" fill="#EBEBEB"/>
<path opacity="0.6" d="M221.004 33.1421H354.376L354.9 26.8723H221.528L221.004 33.1421Z" fill="#EBEBEB"/>
<path opacity="0.6" d="M221.004 43.4256H354.376L354.9 37.1558H221.528L221.004 43.4256Z" fill="#EBEBEB"/>
<path opacity="0.6" d="M221.004 53.7091H354.376L354.9 47.4393H221.528L221.004 53.7091Z" fill="#EBEBEB"/>
<path opacity="0.6" d="M221.004 63.9926H354.376L354.9 57.7228H221.528L221.004 63.9926Z" fill="#EBEBEB"/>
<path opacity="0.6" d="M221.004 74.2762H354.376L354.9 68.0063H221.528L221.004 74.2762Z" fill="#EBEBEB"/>
<path d="M340.642 230.576H312.677V235.998H340.642V230.576Z" fill="#E6E6E6"/>
<path d="M259.93 293.044H265.093V168.27H259.93V293.044Z" fill="#E6E6E6"/>
<path d="M242.049 235.998H312.677V230.576H242.049V235.998Z" fill="#F5F5F5"/>
<path d="M340.642 260.247H312.677V265.669H340.642V260.247Z" fill="#E6E6E6"/>
<path d="M242.049 265.669H312.677V260.246H242.049V265.669Z" fill="#F5F5F5"/>
<path d="M340.642 171.235H312.677V176.657H340.642V171.235Z" fill="#E6E6E6"/>
<path d="M242.049 176.657H312.677V171.234H242.049V176.657Z" fill="#F5F5F5"/>
<path d="M340.642 200.906H312.677V206.328H340.642V200.906Z" fill="#E6E6E6"/>
<path d="M242.049 206.327H312.677V200.904H242.049V206.327Z" fill="#F5F5F5"/>
<path d="M330.558 293.044H335.721V168.27H330.558V293.044Z" fill="#E6E6E6"/>
<path d="M307.515 293.044H312.677V168.27H307.515V293.044Z" fill="#F5F5F5"/>
<path d="M242.049 293.044H247.211L247.211 168.27H242.049L242.049 293.044Z" fill="#F5F5F5"/>
<path d="M9.28141 293.044H62.1129L62.1129 192.235H9.28141L9.28141 293.044Z" fill="#E6E6E6"/>
<path d="M23.3897 293.044H9.28204V279.128H38.1807L23.3897 293.044Z" fill="#FAFAFA"/>
<path d="M153.329 293.044H206.16V192.235H153.329V293.044Z" fill="#E6E6E6"/>
<path d="M9.28142 288.254H165.641V192.234H9.28142V288.254Z" fill="#FAFAFA"/>
<path d="M151.534 293.044H165.642V279.128H136.742L151.534 293.044Z" fill="#FAFAFA"/>
<path d="M20.2257 252.044L154.697 252.044V228.014L20.2257 228.014V252.044Z" fill="#F0F0F0"/>
<path d="M20.2257 281.208H154.697V257.179H20.2257V281.208Z" fill="#F0F0F0"/>
<path d="M45.7853 230.584H129.138C131.584 230.584 133.567 228.633 133.567 226.227V225.934H41.3557V226.227C41.3557 228.633 43.3391 230.584 45.7853 230.584Z" fill="#FAFAFA"/>
<path d="M20.2257 222.879L154.697 222.879V198.849L20.2257 198.849V222.879Z" fill="#F0F0F0"/>
<path d="M45.7853 201.419H129.138C131.584 201.419 133.567 199.468 133.567 197.061V196.768H41.3557V197.061C41.3557 199.468 43.3391 201.419 45.7853 201.419Z" fill="#FAFAFA"/>
<path d="M45.7853 259.749H129.138C131.584 259.749 133.567 257.798 133.567 255.392V255.099H41.3557V255.392C41.3557 257.798 43.3391 259.749 45.7853 259.749Z" fill="#FAFAFA"/>
<path d="M17.6981 94.7034L151.07 94.7034V8.80732L17.6981 8.80732V94.7034Z" fill="#E6E6E6"/>
<path d="M13.6292 94.7034L149.169 94.7034V8.80732L13.6292 8.80732V94.7034Z" fill="#F0F0F0"/>
<path d="M17.6981 111.561L151.07 111.561V94.7028L17.6981 94.7028V111.561Z" fill="#E6E6E6"/>
<path d="M6.84901 111.561L142.388 111.561V94.7028L6.84901 94.7028V111.561Z" fill="#F0F0F0"/>
<path d="M143.472 89.1014V14.4113L19.3265 14.4113L19.3265 89.1014L143.472 89.1014Z" fill="#FAFAFA"/>
<path d="M115.477 89.1017L99.6207 14.4116H74.8776L90.7344 89.1017H115.477Z" fill="white"/>
<path d="M140.833 83.5239C141.058 83.5239 141.24 83.3449 141.24 83.1241V18.0568C141.24 17.8359 141.058 17.6569 140.833 17.6569C140.609 17.6569 140.426 17.8359 140.426 18.0568V83.1241C140.427 83.3449 140.609 83.5239 140.833 83.5239Z" fill="#F0F0F0"/>
<path d="M85.4191 89.1017L69.5623 14.4116H59.9162L75.773 89.1017H85.4191Z" fill="white"/>
<path d="M20.0496 89.1014L20.0496 14.4113H19.3265L19.3265 89.1014H20.0496Z" fill="#E6E6E6"/>
<path opacity="0.6" d="M12.2809 22.8586H145.653L146.178 16.5887H12.8056L12.2809 22.8586Z" fill="#EBEBEB"/>
<path opacity="0.6" d="M12.2809 26.3963H145.653L146.178 20.1255H12.8056L12.2809 26.3963Z" fill="#EBEBEB"/>
<path opacity="0.6" d="M12.2809 29.933H145.653L146.178 23.6631H12.8056L12.2809 29.933Z" fill="#EBEBEB"/>
<path opacity="0.6" d="M12.2809 33.4706H145.653L146.178 27.1998H12.8056L12.2809 33.4706Z" fill="#EBEBEB"/>
<path opacity="0.6" d="M12.2809 37.0073H145.653L146.178 30.7374H12.8056L12.2809 37.0073Z" fill="#EBEBEB"/>
<path opacity="0.6" d="M12.2809 40.544H145.653L146.178 34.2741H12.8056L12.2809 40.544Z" fill="#EBEBEB"/>
<path d="M38.9414 189.154H43.5519L43.5519 138.61H38.9414L38.9414 189.154Z" fill="#F5F5F5"/>
<path d="M39.5348 189.119H40.8368L40.8368 138.576H39.5348L39.5348 189.119Z" fill="#FAFAFA"/>
<path d="M41.3824 189.119H41.8926L41.8926 138.576H41.3824L41.3824 189.119Z" fill="#FAFAFA"/>
<path d="M24.1786 192.235H58.3141C58.3141 189.898 56.3888 188.005 54.0133 188.005H28.4794C26.1039 188.005 24.1786 189.898 24.1786 192.235Z" fill="#F0F0F0"/>
<path d="M32.9603 169.987C33.6901 169.987 34.2864 169.4 34.2864 168.683V135.544C34.2864 134.827 33.6892 134.24 32.9603 134.24C32.2304 134.24 31.6341 134.827 31.6341 135.544V168.683C31.6341 169.401 32.2304 169.987 32.9603 169.987Z" fill="#F0F0F0"/>
<path d="M20.6076 150.625H61.8851L57.137 122.256H25.3556L20.6076 150.625Z" fill="#E0E0E0"/>
<path d="M188 336.038C291.655 336.038 375.685 331.212 375.685 325.259C375.685 319.305 291.655 314.479 188 314.479C84.3447 314.479 0.31543 319.305 0.31543 325.259C0.31543 331.212 84.3447 336.038 188 336.038Z" fill="#F5F5F5"/>
<path d="M46.7762 121.647L45.8107 121.715L47.0958 139.271L48.0612 139.203L46.7762 121.647Z" fill="#407BFF"/>
<path d="M48.7427 148.261L47.7772 148.329L48.2613 154.933L49.2268 154.865L48.7427 148.261Z" fill="#407BFF"/>
<path d="M272.904 229.033H65.5993C60.9103 229.033 56.7982 225.26 56.4604 220.649L46.2741 81.5332C45.9363 76.9218 49.4966 73.149 54.1856 73.149H261.491C266.18 73.149 270.292 76.9218 270.629 81.5332L280.816 220.649C281.153 225.26 277.593 229.033 272.904 229.033Z" fill="#407BFF"/>
<path d="M273.699 229.033H66.394C61.705 229.033 57.593 225.26 57.2551 220.649L47.0689 81.5332C46.731 76.9218 50.2913 73.149 54.9803 73.149H262.285C266.974 73.149 271.086 76.9218 271.424 81.5332L281.61 220.649C281.947 225.26 278.388 229.033 273.699 229.033Z" fill="#407BFF"/>
<path opacity="0.5" d="M273.699 229.033H66.394C61.705 229.033 57.593 225.26 57.2551 220.649L47.0689 81.5332C46.731 76.9218 50.2913 73.149 54.9803 73.149H262.285C266.974 73.149 271.086 76.9218 271.424 81.5332L281.61 220.649C281.947 225.26 278.388 229.033 273.699 229.033Z" fill="white"/>
<path d="M262.592 77.3416H55.2872C55.0529 77.3416 54.8216 77.3511 54.5931 77.3692C49.2943 77.7986 50.3765 85.7259 55.7247 85.7259H263.383C268.731 85.7259 268.653 77.7986 263.291 77.3692C263.06 77.3511 262.826 77.3416 262.592 77.3416Z" fill="#407BFF"/>
<path d="M60.6867 81.5342C60.7642 82.5957 59.953 83.4563 58.8727 83.4563C57.7934 83.4563 56.8554 82.5957 56.7779 81.5342C56.7005 80.4727 57.5117 79.6121 58.592 79.6121C59.6723 79.6121 60.6093 80.4718 60.6867 81.5342Z" fill="#FAFAFA"/>
<path d="M67.3349 81.5342C67.4124 82.5957 66.6012 83.4563 65.5209 83.4563C64.4416 83.4563 63.5036 82.5957 63.4261 81.5342C63.3487 80.4727 64.1599 79.6121 65.2402 79.6121C66.3195 79.6121 67.2575 80.4718 67.3349 81.5342Z" fill="#FAFAFA"/>
<path d="M73.9832 81.5342C74.0606 82.5957 73.2484 83.4563 72.1691 83.4563C71.0898 83.4563 70.1518 82.5957 70.0734 81.5342C69.996 80.4727 70.8081 79.6121 71.8874 79.6121C72.9668 79.6121 73.9048 80.4718 73.9832 81.5342Z" fill="#FAFAFA"/>
<path d="M268.203 215.149H69.8566C68.15 215.149 66.666 213.788 66.5431 212.11L58.166 97.7049C58.0431 96.0265 59.3276 94.6651 61.0342 94.6651H259.38C261.087 94.6651 262.571 96.0255 262.694 97.7049L271.071 212.11C271.194 213.788 269.909 215.149 268.203 215.149Z" fill="white"/>
<path d="M184.641 171.568L181.413 127.472L171.628 121.68H144.714L148.367 171.568H184.641Z" fill="white"/>
<path d="M184.641 172.029H148.367C148.121 172.029 147.917 171.843 147.9 171.601L144.246 121.713C144.237 121.586 144.282 121.459 144.371 121.366C144.46 121.272 144.584 121.219 144.715 121.219H171.629C171.714 121.219 171.799 121.242 171.871 121.286L181.655 127.077C181.785 127.154 181.87 127.289 181.88 127.439L185.109 171.534C185.118 171.662 185.073 171.789 184.984 171.882C184.896 171.976 184.771 172.029 184.641 172.029ZM148.804 171.107H184.137L180.962 127.744L171.499 122.142H145.218L148.804 171.107Z" fill="#407BFF"/>
<path d="M181.413 127.472L171.628 121.68L175.22 129.353L181.413 127.472Z" fill="#EBEBEB"/>
<path d="M175.22 129.814C175.041 129.814 174.873 129.712 174.795 129.545L171.202 121.873C171.116 121.69 171.162 121.472 171.316 121.336C171.469 121.201 171.694 121.181 171.87 121.285L181.654 127.077C181.813 127.17 181.9 127.347 181.877 127.528C181.855 127.709 181.727 127.859 181.55 127.913L175.359 129.794C175.313 129.807 175.267 129.814 175.22 129.814ZM172.692 122.848L175.475 128.792L180.272 127.335L172.692 122.848Z" fill="#407BFF"/>
<path d="M159.898 144.157C159.979 145.27 159.128 146.172 157.996 146.172C156.863 146.172 155.881 145.27 155.799 144.157C155.718 143.044 156.569 142.141 157.701 142.141C158.832 142.141 159.817 143.044 159.898 144.157Z" fill="#407BFF"/>
<path d="M173.194 144.157C173.276 145.27 172.425 146.172 171.292 146.172C170.161 146.172 169.177 145.27 169.095 144.157C169.014 143.044 169.864 142.141 170.997 142.141C172.13 142.142 173.113 143.044 173.194 144.157Z" fill="#407BFF"/>
<path d="M176.945 157.228C176.701 157.228 176.496 157.042 176.478 156.799C176.241 153.559 171.074 150.923 164.959 150.923C160.908 150.923 157.271 152.107 155.466 154.014C154.664 154.862 154.293 155.776 154.363 156.733C154.381 156.987 154.187 157.208 153.928 157.226C153.669 157.242 153.445 157.053 153.427 156.798C153.339 155.593 153.806 154.413 154.779 153.385C156.755 151.296 160.655 149.999 164.959 149.999C171.666 149.999 177.137 152.957 177.414 156.732C177.432 156.986 177.238 157.207 176.979 157.225C176.968 157.228 176.956 157.228 176.945 157.228Z" fill="#407BFF"/>
<path d="M152.346 140.075C152.231 140.075 152.117 140.034 152.026 139.952C151.837 139.778 151.825 139.486 152.001 139.3L154.057 137.121C154.233 136.934 154.53 136.924 154.72 137.097C154.91 137.27 154.921 137.562 154.745 137.749L152.69 139.927C152.597 140.025 152.472 140.075 152.346 140.075Z" fill="#407BFF"/>
<path d="M175.981 140.075C175.867 140.075 175.752 140.034 175.661 139.951L173.286 137.773C173.097 137.599 173.087 137.307 173.263 137.121C173.439 136.934 173.736 136.924 173.926 137.098L176.301 139.276C176.49 139.449 176.5 139.741 176.324 139.928C176.232 140.025 176.107 140.075 175.981 140.075Z" fill="#407BFF"/>
<path d="M141.785 181.426H143.972L147.129 185.552L146.827 181.426H149.035L149.581 188.883H147.372L144.233 184.788L144.533 188.883H142.33L141.785 181.426Z" fill="#407BFF"/>
<path d="M150.571 185.158C150.482 183.941 150.757 182.994 151.398 182.315C152.038 181.637 152.974 181.297 154.204 181.297C155.467 181.297 156.463 181.63 157.194 182.297C157.926 182.963 158.336 183.896 158.424 185.097C158.488 185.968 158.391 186.683 158.133 187.24C157.876 187.798 157.477 188.232 156.936 188.543C156.395 188.853 155.704 189.008 154.862 189.008C154.008 189.008 153.289 188.874 152.71 188.607C152.13 188.339 151.645 187.914 151.254 187.335C150.863 186.756 150.635 186.03 150.571 185.158ZM152.915 185.169C152.97 185.922 153.152 186.463 153.46 186.791C153.769 187.121 154.167 187.284 154.657 187.284C155.161 187.284 155.538 187.123 155.791 186.801C156.043 186.479 156.138 185.9 156.077 185.066C156.026 184.364 155.844 183.851 155.532 183.528C155.221 183.204 154.818 183.042 154.325 183.042C153.853 183.042 153.486 183.207 153.224 183.535C152.962 183.866 152.86 184.409 152.915 185.169Z" fill="#407BFF"/>
<path d="M162.979 181.426H166.46C167.146 181.426 167.707 181.517 168.143 181.7C168.579 181.883 168.948 182.145 169.249 182.488C169.55 182.831 169.779 183.229 169.936 183.684C170.094 184.138 170.191 184.62 170.228 185.128C170.287 185.925 170.24 186.543 170.087 186.982C169.935 187.421 169.706 187.79 169.4 188.086C169.094 188.383 168.757 188.58 168.388 188.678C167.885 188.814 167.424 188.882 167.007 188.882H163.526L162.979 181.426ZM165.446 183.115L165.744 187.189H166.318C166.808 187.189 167.151 187.136 167.351 187.029C167.55 186.923 167.698 186.736 167.796 186.469C167.894 186.203 167.921 185.772 167.877 185.175C167.819 184.384 167.649 183.844 167.365 183.552C167.082 183.261 166.636 183.115 166.029 183.115H165.446V183.115Z" fill="#407BFF"/>
<path d="M175.85 187.651H173.19L172.91 188.882H170.518L172.822 181.425H175.377L178.772 188.882H176.318L175.85 187.651ZM175.246 186.039L174.212 183.358L173.58 186.039H175.246Z" fill="#407BFF"/>
<path d="M177.709 181.426H184.831L184.965 183.267H182.576L182.988 188.883H180.645L180.234 183.267H177.845L177.709 181.426Z" fill="#407BFF"/>
<path d="M190.289 187.651H187.629L187.35 188.882H184.958L187.261 181.425H189.817L193.212 188.882H190.758L190.289 187.651ZM189.685 186.039L188.652 183.358L188.02 186.039H189.685Z" fill="#407BFF"/>
</g>
<defs>
<clipPath id="clip0_4_2">
<rect width="365" height="325" fill="white"/>
</clipPath>
</defs>
</svg>
