<svg xmlns="http://www.w3.org/2000/svg" width="16" height="16" viewBox="0 0 16 16" fill="none">
  <path
    d="M14.1887 6.51718L10.2215 5.94061L8.4481 2.3453C8.39966 2.24686 8.31998 2.16717 8.22154 2.11874C7.97466 1.99686 7.67466 2.09842 7.55123 2.3453L5.77779 5.94061L1.8106 6.51718C1.70123 6.5328 1.60123 6.58436 1.52466 6.66249C1.4321 6.75762 1.3811 6.88561 1.38286 7.01833C1.38461 7.15106 1.43899 7.27765 1.53404 7.3703L4.40435 10.1687L3.72623 14.1203C3.71032 14.2122 3.7205 14.3068 3.75559 14.3932C3.79068 14.4796 3.84929 14.5545 3.92477 14.6093C4.00025 14.6641 4.08958 14.6967 4.18263 14.7034C4.27568 14.71 4.36873 14.6904 4.45123 14.6469L7.99966 12.7812L11.5481 14.6469C11.645 14.6984 11.7575 14.7156 11.8653 14.6969C12.1372 14.65 12.32 14.3922 12.2731 14.1203L11.595 10.1687L14.4653 7.3703C14.5434 7.29374 14.595 7.19374 14.6106 7.08436C14.6528 6.81093 14.4622 6.5578 14.1887 6.51718Z"
    fill="#FAAD14" />
</svg>
