<svg xmlns="http://www.w3.org/2000/svg" width="174" height="28" viewBox="0 0 174 28" fill="none">
<g clip-path="url(#clip0)">
<path d="M47.7214 17.1823C48.5816 15.8427 49.0117 14.0224 49.0117 11.7214C49.0117 9.42172 48.5816 7.60141 47.7214 6.26115C46.8605 4.92088 45.5615 4.25042 43.8224 4.25042C42.084 4.25042 40.7837 4.91622 39.9241 6.24717C39.0632 7.57878 38.6331 9.40375 38.6331 11.7214C38.6331 14.0404 39.0632 15.8647 39.9241 17.1963C40.7837 18.5273 42.084 19.1931 43.8224 19.1931C45.5615 19.1931 46.8605 18.5233 47.7214 17.1823ZM37.8861 18.8808C36.5005 17.1331 35.8081 14.7468 35.8081 11.7214C35.8081 8.69733 36.5005 6.31108 37.8861 4.56268C39.2716 2.81494 41.2504 1.94141 43.8224 1.94141C45.5249 1.94141 46.9783 2.33956 48.1834 3.13653C49.3872 3.93349 50.2974 5.07002 50.9132 6.54611C51.5291 8.02287 51.8374 9.74797 51.8374 11.7214C51.8374 13.6962 51.5291 15.4213 50.9132 16.8974C50.2974 18.3735 49.3872 19.51 48.1834 20.307C46.9783 21.1039 45.5249 21.5021 43.8224 21.5021C41.2504 21.5021 39.2716 20.6286 37.8861 18.8808Z" fill="#1D1D1B"/>
<path d="M63.5737 18.0392C64.1716 17.215 64.4705 16.0784 64.4705 14.6296C64.4705 13.2348 64.1756 12.1122 63.5877 11.2607C62.9984 10.4091 62.1156 9.98364 60.9384 9.98364C59.7606 9.98364 58.8372 10.3825 58.1674 11.1794C57.4969 11.9764 57.162 12.9631 57.162 14.1403V15.0644C57.162 15.7888 57.3025 16.4726 57.5834 17.1151C57.8637 17.7583 58.2799 18.2796 58.8332 18.6777C59.3851 19.0765 60.0509 19.2756 60.8299 19.2756C62.0616 19.2756 62.9765 18.8635 63.5737 18.0392ZM54.4721 11.5596C54.4721 10.8532 54.4222 10.2919 54.323 9.87512C54.2231 9.45832 54.0553 9.05085 53.8203 8.6527L56.0754 7.78316C56.6007 8.34443 56.8903 9.0868 56.9449 10.0109C58.0861 8.50755 59.5615 7.75586 61.3732 7.75586C62.5683 7.75586 63.605 8.04149 64.4838 8.61142C65.3627 9.18201 66.0365 9.98364 66.5079 11.0163C66.9786 12.0483 67.2143 13.2534 67.2143 14.6296C67.2143 16.7302 66.689 18.3968 65.6383 19.6285C64.5877 20.8602 63.1123 21.4761 61.2101 21.4761C60.3772 21.4761 59.6161 21.3037 58.9284 20.9601C58.2399 20.6159 57.66 20.1358 57.1893 19.52V27.2087H54.4721" fill="#1D1D1B"/>
<path d="M79.1416 13.624C79.1416 12.5734 78.8194 11.7085 78.1769 11.0294C77.5337 10.3502 76.6508 10.0107 75.5276 10.0107C74.4044 10.0107 73.5262 10.3682 72.8924 11.084C72.2585 11.7997 71.9416 12.6459 71.9416 13.624H79.1416ZM71.0041 19.6688C69.8177 18.4464 69.2251 16.8026 69.2251 14.7379C69.2251 12.7098 69.7544 11.0427 70.8144 9.73903C71.8737 8.43472 73.445 7.78223 75.5276 7.78223C76.9405 7.78223 78.1223 8.09982 79.0737 8.73366C80.0245 9.36751 80.7262 10.1831 81.179 11.1785C81.6317 12.1752 81.8581 13.2072 81.8581 14.2758C81.8581 15.2905 81.2695 15.7972 80.0924 15.7972H71.9416C71.9416 16.8478 72.2951 17.6854 73.0015 18.3106C73.708 18.9351 74.6674 19.2481 75.8812 19.2481C77.4385 19.2481 78.6975 18.786 79.6576 17.8625L81.0704 19.3839C80.4726 20.0537 79.7295 20.575 78.8427 20.9459C77.9551 21.3167 76.9678 21.5025 75.8812 21.5025C73.8165 21.5025 72.1906 20.8913 71.0041 19.6688Z" fill="#1D1D1B"/>
<path d="M93.3497 18.1062V13.2159C93.3497 12.1293 93.128 11.3276 92.6846 10.811C92.2405 10.295 91.5567 10.0373 90.6332 10.0373C89.6006 10.0373 88.7677 10.4401 88.1338 11.2457C87.5 12.052 87.183 13.0348 87.183 14.1939V21.2302H84.4659V11.5041C84.4659 10.9248 84.4206 10.4175 84.3301 9.98271C84.2395 9.54794 84.0857 9.12249 83.8687 8.7057L86.2862 7.78223C86.4313 8.07185 86.5718 8.42073 86.7076 8.82821C86.8435 9.23568 86.9287 9.63849 86.9653 10.0373C87.4547 9.34887 88.0885 8.80091 88.8675 8.39344C89.6458 7.98596 90.4794 7.78223 91.367 7.78223C94.5002 7.78223 96.0669 9.60254 96.0669 13.2432V18.0789C96.0669 19.021 96.266 19.8446 96.6648 20.551L94.2199 21.5018C93.6394 20.5244 93.3497 19.3925 93.3497 18.1062Z" fill="#1D1D1B"/>
<path d="M100.794 19.641C99.5077 18.4006 98.8652 16.6662 98.8652 14.4384V2.21289H101.636V14.6015C101.636 16.1049 102.034 17.2461 102.831 18.0251C103.628 18.8034 104.733 19.1929 106.146 19.1929C107.559 19.1929 108.663 18.8034 109.461 18.0251C110.257 17.2461 110.656 16.1049 110.656 14.6015V2.21289H113.427V14.4384C113.427 16.6662 112.784 18.4006 111.498 19.641C110.212 20.8821 108.428 21.5019 106.146 21.5019C103.864 21.5019 102.08 20.8821 100.794 19.641Z" fill="#1D1D1B"/>
<path d="M125.137 18.1062V13.2159C125.137 12.1293 124.914 11.3276 124.471 10.811C124.027 10.295 123.343 10.0373 122.42 10.0373C121.387 10.0373 120.554 10.4401 119.92 11.2457C119.286 12.052 118.969 13.0348 118.969 14.1939V21.2302H116.252V11.5041C116.252 10.9248 116.207 10.4175 116.116 9.98271C116.026 9.54794 115.872 9.12249 115.654 8.7057L118.073 7.78223C118.218 8.07185 118.358 8.42073 118.494 8.82821C118.63 9.23568 118.716 9.63849 118.752 10.0373C119.241 9.34887 119.875 8.80091 120.654 8.39344C121.432 7.98596 122.266 7.78223 123.153 7.78223C126.287 7.78223 127.853 9.60254 127.853 13.2432V18.0789C127.853 19.021 128.052 19.8446 128.451 20.551L126.006 21.5018C125.426 20.5244 125.137 19.3925 125.137 18.1062Z" fill="#1D1D1B"/>
<path d="M131.385 8.05416H134.102V21.2304H131.385V8.05416ZM131.385 5.11996C131.022 4.75776 130.841 4.31434 130.841 3.78835C130.841 3.2637 131.022 2.82426 131.385 2.47072C131.747 2.11784 132.209 1.94141 132.77 1.94141C133.314 1.94141 133.771 2.11784 134.142 2.47072C134.513 2.82426 134.7 3.2637 134.7 3.78835C134.7 4.31434 134.513 4.75776 134.142 5.11996C133.771 5.48282 133.314 5.66326 132.77 5.66326C132.209 5.66326 131.747 5.48282 131.385 5.11996Z" fill="#1D1D1B"/>
<path d="M140.078 20.5239C139.48 19.8721 139.182 18.9393 139.182 17.7256V10.2819H136.845L137.416 8.05407H139.209V4.90215L141.844 3.70703V8.05407H145.295L144.751 10.2819H141.899V17.7529C141.899 18.3148 141.998 18.7129 142.198 18.9486C142.397 19.1843 142.741 19.3015 143.23 19.3015C143.736 19.3015 144.208 19.193 144.642 18.9759L145.322 20.986C145.032 21.1132 144.638 21.231 144.14 21.3389C143.642 21.4481 143.176 21.502 142.741 21.502C141.563 21.502 140.676 21.1764 140.078 20.5239Z" fill="#1D1D1B"/>
<path d="M156.379 13.624C156.379 12.5734 156.059 11.7085 155.416 11.0294C154.772 10.3502 153.889 10.0107 152.768 10.0107C151.644 10.0107 150.765 10.3682 150.13 11.084C149.496 11.7997 149.18 12.6459 149.18 13.624H156.379ZM148.243 19.6688C147.056 18.4464 146.462 16.8026 146.462 14.7379C146.462 12.7098 146.992 11.0427 148.053 9.73903C149.113 8.43472 150.683 7.78223 152.768 7.78223C154.178 7.78223 155.362 8.09982 156.312 8.73366C157.264 9.36751 157.964 10.1831 158.418 11.1785C158.869 12.1752 159.096 13.2072 159.096 14.2758C159.096 15.2905 158.508 15.7972 157.33 15.7972H149.18C149.18 16.8478 149.534 17.6854 150.24 18.3106C150.947 18.9351 151.907 19.2481 153.12 19.2481C154.678 19.2481 155.936 18.786 156.896 17.8625L158.308 19.3839C157.712 20.0537 156.969 20.575 156.081 20.9459C155.192 21.3167 154.206 21.5025 153.12 21.5025C151.054 21.5025 149.429 20.8913 148.243 19.6688Z" fill="#1D1D1B"/>
<path d="M169.488 18.0926C170.149 17.305 170.48 16.3136 170.48 15.1178V14.1944C170.48 13.47 170.34 12.7908 170.059 12.1563C169.777 11.5225 169.362 11.0065 168.809 10.6077C168.257 10.2095 167.591 10.0104 166.812 10.0104C165.562 10.0104 164.639 10.4499 164.042 11.3281C163.443 12.2069 163.144 13.3794 163.144 14.8462C163.144 16.1871 163.443 17.2597 164.042 18.066C164.639 18.8716 165.527 19.2751 166.705 19.2751C167.899 19.2751 168.827 18.881 169.488 18.0926ZM170.982 20.5654C170.829 20.176 170.742 19.7458 170.725 19.2751C169.673 20.7599 168.216 21.5022 166.35 21.5022C165.155 21.5022 164.109 21.2306 163.212 20.688C162.316 20.144 161.626 19.3697 161.148 18.3643C160.667 17.3596 160.429 16.1871 160.429 14.8462C160.429 12.7096 160.962 10.9978 162.031 9.7115C163.099 8.42583 164.594 7.78266 166.513 7.78266C168.126 7.78266 169.438 8.43448 170.452 9.73879V1.28906H173.17V17.7265C173.17 18.4322 173.224 18.9988 173.333 19.4243C173.442 19.8504 173.604 20.2525 173.822 20.6334L171.567 21.5022C171.332 21.2672 171.136 20.9549 170.982 20.5654Z" fill="#1D1D1B"/>
<path d="M11.9822 12.0549C8.08256 10.0835 3.81208 13.6542 2.66823 12.5662C1.52504 11.4776 3.3347 10.3145 3.3347 10.3145C3.3347 10.3145 10.6865 8.73852 12.3304 11.0003" fill="#DCD4C9"/>
<path d="M14.6229 7.25462C14.6229 7.25462 13.6988 4.23786 9.37304 1.80567C5.0473 -0.626511 1.6457 -0.143136 1.15101 1.3709C0.656316 2.88494 2.09379 4.14531 2.56252 5.0295C3.03124 5.91303 2.8588 6.79189 1.89937 7.53226C0.939949 8.27197 0.451914 9.21209 1.6963 10.1009C2.94069 10.9905 8.13597 8.95509 11.7906 10.3033" fill="#FFF7EA"/>
<path d="M16.6423 9.23619C18.2748 11.9906 21.5692 13.0552 24.0001 11.6144C26.4302 10.173 27.0774 6.77271 25.4449 4.01827C23.8123 1.2645 20.5179 0.19921 18.0877 1.64068C15.6569 3.08148 15.0097 6.48241 16.6423 9.23619Z" fill="#1D1D1B"/>
<path d="M21.1566 12.2325C21.339 13.2232 21.2498 14.1453 20.9129 14.7718C20.5008 15.5382 19.6818 16.0549 18.6645 16.2559C22.2299 19.4598 24.1654 23.3527 22.5661 25.1777C20.9376 27.0366 16.0672 25.7769 12.1669 22.7915C8.30124 19.8326 5.97958 15.2992 7.6088 13.4402C8.34052 12.6053 9.85989 12.4009 11.6462 12.7198C10.9571 11.4089 10.9185 9.9887 11.6642 8.78825C12.5511 7.3601 14.0764 6.73358 15.8282 7.02986" fill="#1D1D1B"/>
<path d="M12.802 13.5254C12.802 13.5254 15.3034 14.9456 15.9027 15.8184C15.9027 15.8184 10.013 15.2631 8.13672 18.2819C8.13672 18.2819 9.17804 20.2354 10.0975 20.9098C10.0975 20.9098 11.8652 17.7972 19.1691 17.164C19.1691 17.164 15.3267 13.8277 12.802 13.5254Z" fill="#F8B033"/>
<path d="M21.9681 20.1369C21.9681 20.1369 16.8874 19.6056 13.4604 23.5791C13.4604 23.5791 15.1902 24.8082 17.1424 25.3056C17.1424 25.3056 18.6358 22.3248 22.8849 22.0917C22.8849 22.0917 22.6586 20.9665 21.9681 20.1369Z" fill="#F8B033"/>
<path d="M16.6423 9.23626C18.2748 11.9907 21.5692 13.0553 24.0001 11.6145C26.4303 10.173 27.0774 6.77278 25.4449 4.01835C23.8123 1.26458 20.5179 0.199289 18.0877 1.64076C15.6569 3.08156 15.0097 6.48249 16.6423 9.23626Z" stroke="#1D1D1B" stroke-width="0.350051" stroke-miterlimit="10"/>
<path d="M18.6982 1.17756C19.117 1.0151 19.5578 0.907907 20.0006 0.822018C20.4433 0.733466 20.8934 0.680868 21.3448 0.640254C22.249 0.565018 23.1605 0.580997 24.0686 0.652238L24.7497 0.72015C24.9768 0.744119 25.2005 0.785399 25.4269 0.817358C25.8809 0.875282 26.325 0.977816 26.7745 1.06703C27.0002 1.10765 27.2192 1.17157 27.4416 1.22616L28.1067 1.39727C28.5455 1.52644 28.9816 1.66692 29.4204 1.80208C29.7246 1.89529 29.8951 2.21821 29.8012 2.52182C29.708 2.82609 29.3851 2.99654 29.0815 2.90332C29.0622 2.89733 29.0429 2.89001 29.0249 2.88268L28.9963 2.87003C28.5934 2.69759 28.1913 2.51915 27.7852 2.35004L27.168 2.11967C26.9616 2.04377 26.7571 1.95988 26.5461 1.89862C26.1266 1.76813 25.7085 1.62232 25.2804 1.52045C25.0673 1.46652 24.8549 1.40327 24.6392 1.35732L23.9907 1.2215C23.1232 1.05904 22.2417 0.948521 21.3535 0.927215C20.91 0.919891 20.464 0.923886 20.0199 0.9645C19.5764 1.00245 19.1317 1.06104 18.6982 1.17756Z" fill="#1D1D1B"/>
<path d="M18.6982 1.17799C19.1057 0.977586 19.5478 0.856409 19.9906 0.755206C20.436 0.656667 20.8881 0.596745 21.3422 0.560791C22.2516 0.491547 23.1671 0.533493 24.0686 0.652672L24.7424 0.759201C24.9668 0.79915 25.1872 0.85308 25.4089 0.903015C25.853 0.999557 26.2878 1.13006 26.7199 1.26655C27.1526 1.39971 27.5701 1.57881 27.9909 1.7406C28.403 1.92769 28.8112 2.12344 29.208 2.33649C28.7639 2.24195 28.3338 2.11878 27.901 2.00759L27.2492 1.85379C27.0321 1.80385 26.8204 1.73794 26.6007 1.69932C26.1639 1.61676 25.7365 1.49891 25.2984 1.43566C25.08 1.39971 24.8643 1.34911 24.6459 1.31848L23.9907 1.22194C23.1172 1.10742 22.239 1.02353 21.3561 1.00755C20.9154 1.00422 20.4719 1.00155 20.0299 1.03285C19.5858 1.05548 19.143 1.09943 18.6982 1.17799Z" fill="#1D1D1B"/>
<path d="M22.7064 7.04385C22.6711 7.94202 23.1644 8.69039 23.8096 8.71636C24.4534 8.74166 25.0054 8.03457 25.0407 7.1364C25.0766 6.23889 24.5826 5.49053 23.9381 5.46456C23.2936 5.43859 22.7423 6.14568 22.7064 7.04385Z" fill="#FFF7EA"/>
<path d="M15.665 6.99379C15.665 6.99379 16.432 10.7303 21.1566 12.4075C21.1566 12.4075 15.2009 12.4734 12.0483 8.26614C12.0483 8.26614 13.067 6.6276 15.665 6.99379Z" fill="#F8B033"/>
<path d="M16.334 13.0972C16.6735 13.2457 17.0298 13.3483 17.388 13.4335C17.7462 13.5214 18.1097 13.5793 18.4739 13.6279C19.2023 13.7191 19.9367 13.7371 20.6657 13.7111L21.2123 13.6798C21.3941 13.6685 21.5752 13.6432 21.7563 13.6252C22.1192 13.5946 22.4787 13.5267 22.8376 13.4714C23.1958 13.4135 23.5506 13.3256 23.9055 13.2544C24.2584 13.1665 24.6093 13.0693 24.9595 12.9781L24.9841 12.9714C25.2385 12.9055 25.4981 13.058 25.5647 13.3123C25.6313 13.5666 25.4788 13.827 25.2245 13.8935C25.2078 13.8975 25.1912 13.9009 25.1752 13.9035C24.7997 13.9601 24.4262 14.0214 24.052 14.0726C23.6738 14.1079 23.2996 14.1592 22.9221 14.1792C22.5439 14.1972 22.1678 14.2258 21.7896 14.2178C21.6005 14.2165 21.4127 14.2225 21.2243 14.2145L20.6591 14.1858C19.908 14.1332 19.161 14.034 18.4313 13.8616C18.0671 13.773 17.7055 13.6745 17.3547 13.5473C17.0031 13.4228 16.6562 13.2817 16.334 13.0972Z" fill="#1D1D1B"/>
<path d="M16.334 13.0977C16.6875 13.2168 17.0444 13.3067 17.4046 13.38C17.7615 13.4599 18.1243 13.5118 18.4852 13.5631C19.2096 13.6556 19.9367 13.7029 20.6657 13.7115L21.213 13.7155C21.3954 13.7169 21.5779 13.7002 21.7603 13.6975C22.1265 13.6995 22.4907 13.6556 22.8575 13.6416C23.0413 13.637 23.2231 13.6097 23.4068 13.5957L23.9581 13.5491C24.3256 13.5118 24.6925 13.4639 25.0674 13.4412C24.7165 13.5664 24.3589 13.6762 23.9994 13.7788C23.6352 13.8593 23.2717 13.9545 22.9015 14.0098C22.1624 14.133 21.4121 14.1936 20.6591 14.1863C19.9074 14.1683 19.1537 14.0984 18.4193 13.9266C18.0524 13.842 17.6902 13.7375 17.3387 13.6023C16.9885 13.4652 16.6423 13.3114 16.334 13.0977Z" fill="#1D1D1B"/>
<path d="M14.623 12.6514C14.882 12.917 15.1737 13.1467 15.4726 13.3611C15.7709 13.5775 16.0858 13.7693 16.4041 13.951C17.0446 14.3112 17.717 14.6055 18.4022 14.8565L18.9202 15.0343C19.0926 15.0922 19.2704 15.1368 19.4448 15.1887C19.7924 15.2973 20.1506 15.3705 20.5034 15.4551C20.8576 15.537 21.2192 15.5896 21.5747 15.6575C21.9349 15.7094 22.2958 15.752 22.6547 15.8L22.68 15.8033C22.9403 15.8379 23.124 16.0776 23.0888 16.3379C23.0541 16.5989 22.8151 16.782 22.5541 16.7474C22.5375 16.7454 22.5208 16.7421 22.5048 16.7381C22.136 16.6489 21.7671 16.5643 21.4003 16.4704C21.0374 16.3599 20.6719 16.266 20.3143 16.1422C19.9575 16.0157 19.5986 15.9005 19.2511 15.7507C19.0773 15.6774 18.9008 15.6122 18.7291 15.533L18.2171 15.2939C17.5413 14.9604 16.8868 14.5869 16.2769 14.1514C15.9726 13.9317 15.6757 13.7047 15.398 13.4537C15.1204 13.206 14.8527 12.9437 14.623 12.6514Z" fill="#1D1D1B"/>
<path d="M14.623 12.6514C14.906 12.8951 15.2023 13.1134 15.5079 13.3172C15.8088 13.5262 16.1251 13.7113 16.4394 13.8958C17.0745 14.2546 17.731 14.5729 18.4022 14.8565L18.9075 15.0669C19.076 15.1368 19.2511 15.1907 19.4215 15.2573C19.7597 15.3971 20.1126 15.4944 20.4582 15.6202C20.6306 15.6854 20.809 15.7281 20.9842 15.7846L21.5121 15.9504C21.8663 16.0543 22.2239 16.1482 22.5794 16.2694C22.2072 16.2527 21.8351 16.2194 21.4635 16.1781C21.096 16.1149 20.7232 16.0663 20.3596 15.9777C19.6292 15.8119 18.9108 15.5849 18.2171 15.2939C17.528 14.993 16.8568 14.6435 16.241 14.2067C15.9334 13.9896 15.6371 13.7559 15.3628 13.4983C15.0911 13.2393 14.8288 12.9656 14.623 12.6514Z" fill="#1D1D1B"/>
</g>
<defs>
<clipPath id="clip0">
<rect width="173.895" height="28" fill="white"/>
</clipPath>
</defs>
</svg>
